<?xml version="1.0" standalone="no"?>
<!DOCTYPE svg PUBLIC "-//W3C//DTD SVG 20010904//EN"
 "http://www.w3.org/TR/2001/REC-SVG-20010904/DTD/svg10.dtd">
<svg version="1.0" xmlns="http://www.w3.org/2000/svg"
 width="1000.000000pt" height="1000.000000pt" viewBox="0 0 1000.000000 1000.000000"
 preserveAspectRatio="xMidYMid meet">
<metadata>
Created by potrace 1.16, written by Peter Selinger 2001-2019
</metadata>
<g transform="translate(0.000000,1000.000000) scale(0.100000,-0.100000)"
fill="#000000" stroke="none">
<path d="M3693 7806 c-196 -45 -568 -298 -768 -523 -241 -270 -610 -770 -781
-1058 -19 -33 -56 -94 -81 -135 -130 -215 -265 -503 -321 -686 -78 -256 -79
-384 -5 -606 59 -178 155 -318 273 -398 148 -100 258 -111 543 -54 17 4 27 1
27 -6 0 -7 -12 -27 -27 -45 -16 -18 -83 -102 -150 -187 l-123 -155 -45 8 c-54
10 -93 29 -160 79 -66 49 -100 88 -166 193 -30 48 -57 87 -61 87 -3 0 -44 -42
-90 -93 -161 -177 -200 -258 -201 -407 -1 -86 2 -101 28 -155 39 -79 107 -143
201 -189 90 -44 93 -32 -51 -155 -157 -134 -286 -217 -435 -279 -176 -72 -313
-95 -511 -85 -122 6 -128 5 -124 -13 2 -10 9 -55 15 -99 17 -125 30 -174 70
-261 92 -201 295 -328 492 -310 337 31 681 317 1141 947 l78 106 130 8 c72 4
133 4 136 1 4 -3 -4 -39 -15 -80 -77 -263 -62 -435 47 -558 27 -30 67 -60 109
-80 63 -31 74 -33 172 -33 93 1 119 5 230 39 69 21 127 40 129 42 2 1 -6 15
-16 31 -60 87 -97 170 -103 231 -3 34 -2 62 3 62 4 0 27 -19 50 -41 167 -164
380 -256 617 -266 117 -5 140 -3 350 36 659 123 1069 188 1655 261 212 26 852
74 864 64 2 -1 -13 -51 -32 -111 -88 -270 -157 -595 -157 -735 0 -35 22 -163
37 -212 12 -41 106 -127 194 -176 273 -155 333 -161 547 -55 406 202 708 494
862 836 68 151 116 375 101 469 -23 141 -130 256 -311 336 -47 20 -87 38 -89
40 -2 2 2 16 9 30 23 43 17 124 -14 172 -40 64 -96 96 -167 97 -40 0 -59 4
-59 12 0 16 67 151 110 223 30 50 278 511 345 640 77 150 74 297 -10 438 -19
31 -87 110 -153 176 l-120 118 -42 -73 c-24 -41 -61 -105 -83 -144 -22 -38
-53 -92 -68 -118 -16 -27 -29 -53 -29 -58 0 -5 -7 -9 -15 -9 -8 0 -15 7 -15
15 0 45 -60 128 -181 250 -71 72 -129 137 -129 144 0 42 128 168 237 235 63
39 240 106 280 106 18 0 32 20 76 104 l53 105 -104 88 c-57 48 -114 92 -125
96 -25 10 -177 2 -224 -12 -23 -7 -33 -6 -33 1 0 6 38 87 85 179 98 194 115
261 95 377 -19 113 -66 194 -170 298 l-92 91 -67 -32 c-36 -18 -78 -46 -92
-61 -30 -33 -112 -159 -137 -210 -8 -19 -18 -34 -21 -34 -3 1 -23 35 -44 78
-29 60 -60 100 -136 180 -55 56 -102 102 -106 102 -4 0 -38 -28 -76 -61 -69
-62 -155 -181 -233 -321 -21 -38 -41 -68 -45 -68 -4 0 -66 73 -138 163 -72 89
-146 179 -165 199 l-33 37 -93 -19 c-167 -35 -282 -94 -410 -207 -67 -60 -212
-234 -212 -254 0 -20 -28 -7 -74 34 l-49 43 31 64 c49 101 68 189 53 254 -20
88 -59 139 -134 175 -55 26 -77 31 -141 31 -141 0 -239 -58 -292 -172 -26 -56
-29 -74 -29 -166 l0 -102 -74 -95 c-41 -52 -78 -95 -82 -95 -7 0 -70 95 -149
222 -95 156 -175 280 -182 285 -5 2 -65 -14 -134 -37 -69 -23 -127 -40 -130
-37 -3 2 5 29 16 58 12 30 45 119 73 199 51 143 51 146 52 265 0 114 -2 123
-30 180 -41 81 -89 129 -168 166 -81 37 -187 47 -284 25z m214 -161 c123 -52
152 -190 81 -395 -126 -365 -162 -445 -217 -490 -66 -51 -127 -73 -211 -74
-94 -1 -200 21 -200 42 0 8 24 54 54 101 63 99 136 247 136 273 0 38 -406
-379 -631 -647 -143 -172 -339 -437 -415 -562 -10 -17 -43 -71 -73 -120 -114
-183 -238 -453 -306 -663 -30 -92 -36 -125 -31 -164 5 -48 48 -136 66 -136 6
0 31 15 57 34 260 183 677 355 939 388 l94 11 50 -54 c27 -30 49 -57 50 -60 0
-4 -57 -28 -127 -54 -226 -84 -433 -193 -593 -313 -89 -66 -214 -191 -260
-257 l-33 -48 -64 6 c-189 18 -340 182 -408 443 -42 163 -32 288 41 504 72
211 226 512 402 785 88 137 226 341 280 415 31 41 80 109 110 150 84 114 299
376 371 453 62 65 237 211 346 288 193 136 380 190 492 144z m1268 -699 c40
-17 55 -42 55 -94 0 -49 -21 -111 -61 -175 l-30 -50 25 -151 c31 -185 33 -207
51 -526 19 -321 19 -374 0 -437 -27 -89 -32 -92 -180 -104 -259 -19 -441 -54
-556 -105 l-60 -27 -24 23 c-37 35 -56 104 -62 225 -5 94 -3 112 11 124 23 19
20 27 -14 41 -16 7 -30 17 -30 22 0 11 55 94 83 125 11 13 19 25 16 27 -2 2
-34 6 -70 9 l-66 6 -61 -92 c-59 -88 -149 -195 -270 -321 -110 -113 -253 -191
-385 -210 -47 -7 -50 -6 -127 50 -80 57 -149 134 -169 187 -17 44 -13 89 19
224 17 69 30 137 30 152 0 14 26 78 58 141 201 393 446 635 776 765 49 19 92
32 97 30 4 -3 29 -40 56 -83 26 -42 62 -99 80 -127 18 -27 33 -52 33 -56 0 -4
-14 -9 -30 -13 l-30 -6 46 -67 c42 -62 46 -71 40 -112 -8 -55 -61 -243 -86
-297 l-18 -42 45 -6 c118 -16 123 -14 197 93 23 33 109 153 191 266 83 114
163 225 179 247 26 37 27 42 17 83 -15 61 -14 161 3 193 37 71 138 102 221 68z
m1685 -157 c21 -22 52 -62 67 -87 24 -42 27 -57 28 -142 l0 -95 -83 -155 c-45
-85 -102 -189 -125 -231 -23 -42 -68 -125 -101 -185 -32 -60 -74 -137 -93
-172 l-35 -63 53 32 c47 28 169 93 280 151 39 20 40 22 144 248 165 357 337
682 386 725 l21 20 46 -50 c68 -75 87 -123 87 -226 l0 -86 -64 -124 c-189
-369 -321 -646 -321 -675 0 -3 24 15 53 41 77 70 161 124 259 168 74 32 102
39 175 43 l88 5 38 -36 c21 -20 36 -42 34 -49 -3 -6 -31 -20 -63 -30 -81 -25
-212 -87 -271 -127 -125 -85 -197 -165 -270 -299 -20 -39 -41 -70 -46 -70 -4
0 -36 19 -69 42 -94 63 -186 160 -217 228 l-26 59 -82 -55 c-86 -57 -215 -187
-241 -241 -9 -18 -21 -33 -28 -33 -25 0 -142 91 -209 161 -100 107 -117 165
-70 247 l24 42 -27 -6 c-57 -13 -242 -97 -319 -144 -99 -61 -217 -170 -263
-243 -19 -31 -42 -56 -50 -56 -23 0 -122 59 -169 102 -22 20 -62 70 -87 110
l-45 72 6 94 c11 153 103 428 207 616 64 117 117 191 199 279 94 101 196 168
307 203 l85 26 31 -34 c34 -38 234 -282 253 -309 11 -16 -3 -46 -146 -302 -58
-103 -133 -125 -214 -63 -65 49 -68 68 -20 119 88 92 153 201 153 258 0 60
-36 41 -173 -91 -130 -125 -232 -282 -301 -460 -40 -103 -76 -227 -76 -261 0
-21 2 -22 18 -8 29 25 172 105 262 146 152 70 235 94 346 100 l101 5 42 90
c46 102 273 527 334 627 66 108 122 190 130 190 4 0 25 -18 47 -41z m-2937
-1675 c29 -15 64 -35 80 -46 28 -20 77 -104 77 -132 0 -13 -27 -50 -128 -176
-38 -48 -178 -249 -237 -340 -26 -41 -62 -97 -80 -125 -18 -27 -42 -68 -54
-90 -12 -22 -42 -74 -67 -115 -47 -79 -171 -319 -197 -383 l-16 -37 59 6 c70
7 99 -6 120 -56 17 -41 12 -44 -103 -59 -51 -7 -101 -16 -113 -21 -22 -9 -76
-167 -115 -340 -31 -133 -32 -312 -3 -392 l21 -57 -46 -8 c-140 -22 -233 14
-282 109 -45 89 -11 305 92 572 17 43 28 80 25 83 -2 3 -73 0 -156 -6 -83 -6
-210 -11 -283 -11 l-132 0 -40 -57 c-359 -511 -650 -815 -902 -942 -77 -38
-168 -61 -248 -61 -100 0 -194 55 -268 158 -37 51 -77 148 -77 187 0 24 2 25
74 25 321 0 703 189 1021 505 61 61 130 133 153 161 l42 52 -72 17 c-91 22
-232 82 -281 119 -56 43 -81 103 -75 184 5 70 24 117 77 189 l30 42 83 -82
c66 -65 103 -93 183 -134 89 -46 236 -108 239 -101 14 27 259 336 410 517 262
315 573 603 764 707 37 20 85 48 107 63 163 105 228 120 318 75z m3519 -86
c72 -85 83 -111 83 -208 l0 -85 -79 -145 c-72 -133 -170 -310 -283 -514 -24
-44 -42 -80 -41 -81 2 -1 77 51 167 115 l163 118 65 113 c36 63 85 148 108
189 53 96 265 463 294 513 13 20 26 37 30 37 4 0 28 -21 53 -47 65 -66 88
-121 88 -211 0 -71 -2 -75 -76 -220 -206 -397 -255 -488 -294 -547 -64 -95
-157 -313 -223 -520 -56 -179 -62 -159 49 -173 377 -48 628 -159 665 -296 26
-92 -39 -342 -129 -501 -63 -111 -112 -175 -215 -282 -109 -113 -208 -191
-356 -284 -98 -62 -314 -169 -340 -169 -20 0 -188 84 -251 126 -95 62 -130
104 -131 157 -3 89 3 185 17 272 27 166 120 497 203 723 17 46 31 87 31 90 0
9 -207 5 -450 -9 -445 -25 -983 -90 -1615 -194 -407 -68 -454 -76 -685 -122
-203 -40 -355 -48 -460 -25 -138 31 -284 109 -382 205 -54 53 -103 115 -96
122 10 10 796 97 1173 130 345 30 404 35 610 50 366 26 749 45 1115 54 324 8
445 8 761 -3 l106 -3 16 36 c9 20 27 65 41 102 13 36 34 85 45 110 11 24 48
109 82 189 34 80 66 151 71 158 6 6 7 12 3 12 -12 0 -68 -42 -140 -105 -97
-85 -161 -133 -203 -150 -48 -21 -116 -19 -161 4 -42 22 -101 84 -101 106 0
22 -5 20 -78 -39 -115 -93 -242 -241 -242 -282 0 -23 -24 -16 -86 27 -76 53
-169 142 -205 198 -41 63 -39 119 7 240 54 143 183 411 312 649 28 50 49 92
47 92 -1 0 -65 -52 -141 -115 -77 -64 -200 -166 -274 -227 -74 -62 -143 -121
-153 -132 -31 -36 -116 -214 -152 -320 -47 -138 -65 -222 -70 -325 -2 -47 -8
-87 -12 -87 -13 -3 -36 18 -99 91 -114 131 -153 210 -139 278 10 45 98 270
134 344 17 34 31 65 31 68 0 10 165 335 199 393 17 29 31 55 31 57 0 5 -557
-438 -600 -478 -27 -24 -48 -64 -87 -162 -77 -193 -123 -401 -123 -552 0 -29
-3 -53 -6 -53 -8 0 -67 66 -126 141 -52 66 -118 191 -118 225 0 13 -3 24 -6
24 -16 0 -107 -73 -169 -135 -70 -69 -122 -140 -165 -222 -13 -26 -27 -40 -33
-36 -7 3 -46 30 -87 59 -119 82 -193 172 -214 256 -11 45 127 405 236 614 l47
90 -54 32 c-29 18 -57 32 -62 32 -5 0 -27 -37 -48 -82 -56 -120 -132 -282
-170 -363 -18 -38 -52 -110 -75 -160 -49 -105 -109 -231 -155 -330 -19 -38
-41 -87 -49 -107 -8 -21 -21 -38 -28 -38 -7 0 -44 29 -82 64 l-69 64 5 50 c5
47 58 153 193 382 18 30 60 107 94 170 35 63 98 178 142 255 122 215 121 213
104 352 -15 122 37 193 142 193 45 0 54 -4 77 -31 32 -37 33 -74 6 -161 -11
-34 -20 -63 -20 -64 -1 -4 130 -94 137 -94 5 0 18 15 29 34 56 98 191 296 202
296 25 0 90 -78 112 -136 40 -107 16 -212 -80 -354 -15 -23 -30 -49 -115 -205
-96 -175 -205 -411 -205 -444 0 -6 31 11 69 38 91 65 223 139 285 160 27 10
53 24 57 32 4 8 23 46 42 84 20 39 46 89 59 111 42 75 320 579 362 656 17 32
35 58 40 58 6 0 40 -18 78 -40 87 -52 118 -92 118 -153 0 -39 -10 -61 -74
-164 -41 -65 -72 -120 -70 -122 3 -3 45 31 143 115 20 17 108 89 196 159 88
71 177 143 199 161 38 32 39 33 70 17 236 -119 271 -184 175 -324 -28 -41 -57
-81 -65 -90 -35 -39 -8 -25 59 31 95 81 148 125 225 185 35 28 107 85 159 128
52 42 98 77 101 77 3 0 47 -25 98 -55 71 -43 96 -63 109 -91 30 -63 17 -105
-71 -239 -194 -294 -318 -528 -374 -708 l-18 -57 22 17 c137 106 228 163 319
198 53 20 46 7 164 290 14 33 41 85 60 115 19 30 50 80 69 110 19 30 53 86 77
123 23 37 74 117 113 177 40 61 81 126 93 145 11 19 27 35 34 35 8 0 35 -24
59 -52z m418 -1383 c75 -39 79 -160 8 -209 -28 -20 -100 -21 -137 -1 -38 19
-65 77 -57 124 8 53 63 101 116 101 23 0 54 -7 70 -15z"/>
<path d="M4168 6437 c-61 -54 -91 -120 -91 -201 0 -34 6 -74 13 -91 l12 -30
19 40 c11 22 35 92 54 155 20 63 40 127 44 143 5 15 6 27 3 27 -4 0 -28 -19
-54 -43z"/>
<path d="M3816 6123 c-46 -65 -236 -424 -236 -446 0 -3 -18 -42 -39 -87 -34
-69 -38 -84 -30 -113 12 -43 44 -77 73 -77 36 0 100 53 155 127 86 117 145
195 174 229 15 17 36 56 46 86 10 30 28 72 39 95 l21 40 -30 29 c-30 29 -99
154 -99 180 0 29 -22 11 -74 -63z"/>
<path d="M4860 6173 c-3 -6 -61 -76 -130 -155 -69 -78 -138 -158 -154 -176
l-29 -33 39 15 c101 39 187 58 211 47 30 -14 29 -29 -5 -80 -25 -37 -45 -50
-152 -99 l-124 -57 121 -7 c117 -6 196 -21 220 -39 6 -6 13 -6 15 -2 1 4 1
141 -2 303 -3 162 -7 290 -10 283z"/>
<path d="M3685 4772 c-164 -87 -237 -136 -425 -291 -198 -163 -453 -430 -657
-687 -40 -51 -73 -94 -73 -96 0 -7 134 -18 402 -33 l97 -5 37 67 c82 152 138
251 173 306 71 114 264 403 315 472 51 69 183 244 219 291 25 33 16 30 -88
-24z"/>
<path d="M7386 3119 c-30 -138 -74 -374 -95 -519 -12 -80 -26 -162 -30 -182
-5 -21 -7 -38 -4 -38 6 0 86 47 253 150 74 45 187 114 250 153 63 39 142 86
175 104 102 58 163 130 149 176 -16 53 -100 110 -224 150 -82 27 -273 63 -386
73 l-71 7 -17 -74z"/>
<path d="M5342 7472 c-51 -35 259 -150 508 -187 157 -24 330 -18 330 11 0 34
-218 110 -428 150 -142 27 -386 43 -410 26z"/>
<path d="M7987 5676 l-29 -63 -79 -16 c-145 -29 -281 -101 -376 -199 l-42 -43
112 -113 c61 -62 113 -110 115 -105 1 4 16 31 32 58 16 28 42 75 58 105 17 30
46 81 66 114 19 32 37 63 39 70 6 15 329 -306 372 -370 54 -80 85 -186 85
-288 l0 -86 561 0 560 0 -6 23 c-13 43 -64 147 -96 194 -18 27 -67 83 -108
127 -210 218 -577 425 -1046 591 -27 10 -78 28 -112 41 -34 13 -65 24 -70 24
-4 0 -21 -29 -36 -64z"/>
<path d="M1675 5625 c-16 -8 -75 -33 -130 -55 -495 -205 -836 -463 -954 -721
-16 -35 -32 -74 -36 -86 l-6 -23 550 0 c303 0 551 3 551 8 0 4 -11 48 -25 97
-32 112 -42 246 -26 354 14 95 67 289 104 379 27 66 24 71 -28 47z"/>
<path d="M555 4520 c-3 -5 8 -43 26 -85 97 -234 379 -473 785 -664 l101 -48
-5 72 c-6 96 25 217 78 305 22 37 82 113 133 169 50 56 105 118 121 137 l30
34 -31 43 -31 42 -600 3 c-384 1 -603 -1 -607 -8z"/>
<path d="M8253 4518 c-6 -7 -76 -137 -157 -288 -81 -151 -163 -302 -181 -335
-19 -33 -35 -63 -35 -67 0 -5 20 -17 45 -29 69 -33 129 -106 150 -183 l18 -65
121 43 c540 192 933 432 1124 685 58 77 128 222 117 241 -10 16 -1190 13
-1202 -2z"/>
<path d="M2005 4253 c21 -32 51 -73 69 -91 32 -34 156 -113 167 -106 3 2 33
38 66 81 l60 78 -81 1 c-91 1 -172 22 -259 65 l-58 30 36 -58z"/>
</g>
</svg>
